<?xml version="1.0" encoding="UTF-8" standalone="no"?>
<!-- Created with Inkscape (http://www.inkscape.org/) -->

<svg
   width="48"
   height="48"
   viewBox="0 0 12.7 12.7"
   version="1.1"
   id="svg5"
   inkscape:version="1.2.2 (732a01da63, 2022-12-09)"
   sodipodi:docname="carinfo.svg"
   inkscape:export-filename="..\..\res\drawable\ic_carinfo.png"
   inkscape:export-xdpi="96"
   inkscape:export-ydpi="96"
   xmlns:inkscape="http://www.inkscape.org/namespaces/inkscape"
   xmlns:sodipodi="http://sodipodi.sourceforge.net/DTD/sodipodi-0.dtd"
   xmlns:xlink="http://www.w3.org/1999/xlink"
   xmlns="http://www.w3.org/2000/svg"
   xmlns:svg="http://www.w3.org/2000/svg">
  <sodipodi:namedview
     id="namedview7"
     pagecolor="#ffffff"
     bordercolor="#666666"
     borderopacity="1.0"
     inkscape:showpageshadow="2"
     inkscape:pageopacity="0.0"
     inkscape:pagecheckerboard="0"
     inkscape:deskcolor="#d1d1d1"
     inkscape:document-units="px"
     showgrid="true"
     inkscape:zoom="10.35098"
     inkscape:cx="2.6084487"
     inkscape:cy="2.7533625"
     inkscape:window-width="1760"
     inkscape:window-height="1230"
     inkscape:window-x="119"
     inkscape:window-y="52"
     inkscape:window-maximized="0"
     inkscape:current-layer="layer1">
    <inkscape:grid
       type="xygrid"
       id="grid9"
       empspacing="8" />
  </sodipodi:namedview>
  <defs
     id="defs2" />
  <g
     inkscape:label="Layer 1"
     inkscape:groupmode="layer"
     id="layer1">
    <path
       d="m 5.7593386,7.1593872 c -0.016748,4.026e-4 -0.03422,0.00166 -0.05229,0.00376 -0.040881,0.00476 -0.1053314,0.021331 -0.1423716,0.03771 C 5.251335,7.3399707 4.4802076,7.9428988 4.2657228,8.1126146 4.2346717,8.1372506 4.1764055,8.1595816 4.135258,8.1626856 2.3086385,8.3019713 2.0510871,8.841291 2.0177925,9.0321952 c -0.00641,0.036895 -0.031626,0.08514 -0.057467,0.1142238 -0.1560529,0.1764397 -0.065911,0.5235767 -0.018983,0.6668807 0.011732,0.03591 0.010281,0.093591 0.010699,0.1309643 0.00213,0.158922 0.2656886,0.153789 0.2774966,0.153496 -0.012835,-0.05734 -0.019673,-0.1168052 -0.019673,-0.1777482 0,-0.4942669 0.4435591,-0.8967357 0.9888409,-0.8967357 0.5452439,0 0.9890134,0.4024688 0.9890134,0.8967357 0,0.1036302 -0.020492,0.2026082 -0.056259,0.2952582 1.1004518,-0.06558 4.5651067,-0.04216 4.7115763,-0.02738 0.018518,0.0018 0.056682,0.0015 0.109239,-6.52e-4 -0.015838,-0.06439 -0.025198,-0.131057 -0.025198,-0.1996566 0,-0.4990923 0.4478797,-0.9050259 0.9985049,-0.9050259 0.5455674,0 0.9899964,0.3994155 0.9974704,0.8925083 l 0.149792,-0.0125 c -0.01889,-0.1051295 -0.0029,-0.2421173 0.05937,-0.3443954 0.138921,-0.2236433 0.0096,-0.3856731 -0.07317,-0.4587732 -0.02964,-0.02589 -0.05678,-0.07338 -0.05747,-0.11062 -0.0094,-0.5433855 -0.237279,-0.7307086 -0.354636,-0.7912742 -0.03581,-0.018379 -0.03532,-0.031661 0.0053,-0.038022 0.535299,-0.08391 0.172844,-0.078964 0.125288,-0.2087325 -0.04967,-0.1353554 -0.373078,0.011338 -0.541015,0.050853 -0.06197,0.01462 -0.2569259,0.045993 -0.4781982,0.079956 -0.3063025,-0.1743506 -0.659138,-0.1432194 -0.7870879,0.115632 -0.039378,0.00434 -0.088465,0.00751 -0.1218357,0.00751 H 8.215043 C 8.3436098,8.1162946 8.1976502,8.0242597 8.0780205,8.0149673 c 0.1086483,0.00145 0.1960424,0.050465 0.1960424,-0.09936 0,-0.1519925 -0.089807,-0.2752331 -0.2005292,-0.2752331 -0.06735,0 -0.126668,0.045948 -0.1630817,0.1157893 -0.028731,-0.04467 -0.070208,-0.073542 -0.1168311,-0.073542 -0.086345,0 -0.1563506,0.096097 -0.1563506,0.2145215 0,0.1184595 0.070005,0.077297 0.1563506,0.077297 0.033541,0 0.064201,0.00592 0.089737,0.00657 0.023315,0.059266 0.086621,0.040176 0.1634264,0.035362 -0.0292,0.00536 -0.065369,0.020429 -0.1038886,0.040214 -0.030328,-0.046394 -0.08457,-0.074445 -0.1335713,-0.078549 -0.080166,-0.0065 -0.265546,0.1751684 -0.3537732,0.2669397 -0.0058,0.00609 -0.00942,0.012835 -0.01208,0.019559 H 5.8017884 V 8.0742671 c 0,-0.065359 -0.058553,-0.118292 -0.1306379,-0.118292 -0.072084,0 -0.1306369,0.052933 -0.1306369,0.118292 V 8.2645424 H 5.2483483 c -0.041186,0 -0.050005,-0.020817 -0.020018,-0.046315 0.18929,-0.161268 0.8042284,-0.6916326 0.7726072,-0.7488712 -0.021525,-0.038861 0.00434,-0.099982 0.0302,-0.145049 0.018938,-0.033084 0.015511,-0.080462 -0.01881,-0.1012367 -0.050945,-0.03085 -0.1357564,-0.066515 -0.2529913,-0.063683 z"
       style="fill:#ebd020;fill-opacity:1;stroke-width:0.0700045"
       id="path2-0" />
    <path
       style="stroke-width:0.0700048;fill:#949494;fill-opacity:1"
       d="m 3.1750177,10.847917 c 0.3241218,0 0.6023721,-0.194562 0.7257333,-0.472923 0.043464,-0.09824 0.067999,-0.206425 0.067999,-0.320835 0,-0.4383402 -0.3553083,-0.7937423 -0.793732,-0.7937423 -0.4384238,0 -0.793768,0.3554021 -0.793768,0.7937423 0,0.059 0.00691,0.11619 0.019018,0.171445 0.078532,0.355851 0.395338,0.622313 0.7747497,0.622313 z"
       id="path8" />
    <path
       style="stroke-width:0.0700048;fill:#949494;fill-opacity:1"
       d="m 9.9218917,10.847918 c 0.3241223,0 0.6023723,-0.194562 0.7257333,-0.472923 0.04346,-0.09824 0.068,-0.206425 0.068,-0.320836 0,-0.4383402 -0.355308,-0.7937423 -0.793732,-0.7937423 -0.4384238,0 -0.793768,0.3554021 -0.793768,0.7937423 0,0.059 0.00691,0.116191 0.019018,0.171446 0.078532,0.355851 0.395338,0.622313 0.7747487,0.622313 z"
       id="path8-0" />
    <g
       id="g7785"
       style="stroke:#ababab;stroke-width:1.22392;stroke-opacity:1"
       transform="matrix(0.81929448,0,0,0.81480922,0.93038789,0.71993795)">
      <path
         style="fill:none;fill-rule:evenodd;stroke:#ababab;stroke-width:1.94297;stroke-linecap:butt;stroke-linejoin:round;stroke-dasharray:none;stroke-opacity:1"
         id="path308"
         sodipodi:type="arc"
         sodipodi:cx="6.3497882"
         sodipodi:cy="6.0314722"
         sodipodi:rx="2.2942977"
         sodipodi:ry="2.3019865"
         sodipodi:start="2.5145825"
         sodipodi:end="0.47679667"
         sodipodi:open="true"
         sodipodi:arc-type="arc"
         d="M 4.4918995,7.3821081 A 2.2942977,2.3019865 0 0 1 4.7319013,4.3992927 2.2942977,2.3019865 0 0 1 7.7060177,4.1747455 2.2942977,2.3019865 0 0 1 8.3882019,7.0879355" />
      <path
         style="fill:none;fill-rule:evenodd;stroke:#ababab;stroke-width:0.971484;stroke-linecap:square;stroke-linejoin:bevel;stroke-dasharray:none;stroke-opacity:1"
         d="m 5.8187559,3.2076399 0.504966,-1.3867653 0.468818,1.4048398 z"
         id="path1142"
         sodipodi:nodetypes="cccc"
         inkscape:tile-cx="6.2907978"
         inkscape:tile-cy="2.6859649"
         inkscape:tile-w="1.7231699"
         inkscape:tile-h="1.9374391"
         inkscape:tile-x0="5.430985"
         inkscape:tile-y0="1.8477524" />
      <use
         x="0"
         y="0"
         inkscape:tiled-clone-of="#path1142"
         xlink:href="#path1142"
         transform="rotate(50,6.2879238,6.1536925)"
         id="use6678"
         style="stroke:#ababab;stroke-width:1.22392;stroke-opacity:1" />
      <use
         x="0"
         y="0"
         inkscape:tiled-clone-of="#path1142"
         xlink:href="#path1142"
         transform="rotate(100,6.3190808,6.068926)"
         id="use6680"
         style="stroke:#ababab;stroke-width:1.22392;stroke-opacity:1" />
      <use
         x="0"
         y="0"
         inkscape:tiled-clone-of="#path1142"
         xlink:href="#path1142"
         transform="rotate(-110,6.3134899,5.9993127)"
         id="use6686"
         style="stroke:#ababab;stroke-width:1.22392;stroke-opacity:1" />
      <use
         x="0"
         y="0"
         inkscape:tiled-clone-of="#path1142"
         xlink:href="#path1142"
         transform="rotate(-60,6.2472092,5.7896261)"
         id="use6688"
         style="stroke:#ababab;stroke-width:1.22392;stroke-opacity:1" />
    </g>
  </g>
</svg>
