<?xml version="1.0" encoding="UTF-8" standalone="no"?>
<!-- Created with Inkscape (http://www.inkscape.org/) -->

<svg
   width="48"
   height="48"
   viewBox="0 0 12.7 12.7"
   version="1.1"
   id="svg5"
   inkscape:version="1.2.2 (b0a8486541, 2022-12-01)"
   sodipodi:docname="carinfo_common.svg"
   inkscape:export-filename="..\..\res\drawable\ic_carinfo_common.png"
   inkscape:export-xdpi="96"
   inkscape:export-ydpi="96"
   xmlns:inkscape="http://www.inkscape.org/namespaces/inkscape"
   xmlns:sodipodi="http://sodipodi.sourceforge.net/DTD/sodipodi-0.dtd"
   xmlns:xlink="http://www.w3.org/1999/xlink"
   xmlns="http://www.w3.org/2000/svg"
   xmlns:svg="http://www.w3.org/2000/svg">
  <sodipodi:namedview
     id="namedview7"
     pagecolor="#ffffff"
     bordercolor="#666666"
     borderopacity="1.0"
     inkscape:showpageshadow="2"
     inkscape:pageopacity="0.0"
     inkscape:pagecheckerboard="0"
     inkscape:deskcolor="#d1d1d1"
     inkscape:document-units="px"
     showgrid="true"
     inkscape:zoom="10.35098"
     inkscape:cx="2.6084487"
     inkscape:cy="2.7533625"
     inkscape:window-width="1760"
     inkscape:window-height="1230"
     inkscape:window-x="119"
     inkscape:window-y="52"
     inkscape:window-maximized="0"
     inkscape:current-layer="layer1">
    <inkscape:grid
       type="xygrid"
       id="grid9"
       empspacing="8" />
  </sodipodi:namedview>
  <defs
     id="defs2" />
  <g
     inkscape:label="Layer 1"
     inkscape:groupmode="layer"
     id="layer1">
    <path
       fill="#ffffff"
       d="M 10.79467,8.5108199 C 10.775031,8.3774507 10.665071,8.1430435 10.354818,8.130919 L 9.9463833,8.110711 h -0.0078 -0.0078 c 0,0 -0.015709,0 -0.039269,0 -0.1413814,0 -0.3220352,-0.024245 -0.4045077,-0.092953 C 9.4555096,7.993513 8.6661304,7.3630351 7.5390075,7.2781631 c -0.011782,0 -0.2552717,-0.020208 -0.5930159,-0.020208 -0.4830527,0 -1.1389046,0.040415 -1.5394849,0.2222827 -0.019636,0.00804 -0.4359256,0.2061165 -0.7461789,0.4324406 h -0.00393 C 4.6524682,7.9166968 4.2793812,8.1955843 3.7492015,8.2642901 3.7020743,8.2683081 3.2150946,8.3168279 2.7163329,8.4461575 1.9701539,8.644191 1.5931373,8.931137 1.5852827,9.3029558 v 0 0.1293277 c 0,0.056585 0,0.6951385 0.4634164,0.9052965 l 0.027491,0.01212 h 0.5380342 c 0.1570903,0.347568 0.4987617,0.590059 0.8954148,0.590059 0.3966529,0 0.7383243,-0.242491 0.8954146,-0.590059 h 3.6562766 c 0.1570904,0.347568 0.4987617,0.590059 0.8954147,0.590059 0.3966531,0 0.7383244,-0.242491 0.8954148,-0.590059 h 0.3102532 0.0078 c 0.231708,-0.02425 0.675488,-0.246532 0.695124,-0.929546 V 9.2504141 c -0.0039,-0.052538 -0.01174,-0.5294371 -0.07065,-0.7395952 z M 3.5174629,10.652817 c -0.2709808,0 -0.5066162,-0.161661 -0.624434,-0.396068 l -0.027491,-0.08892 c 0,-0.004 -0.078545,-0.2829051 0.019636,-0.5415614 0.066763,-0.1495353 0.1845812,-0.2667384 0.3259625,-0.3394858 0.078545,-0.028293 0.1885082,-0.06466 0.3181078,-0.06466 0.1178177,0 0.2317081,0.028293 0.3338169,0.084868 0.098181,0.056575 0.1806538,0.1414523 0.2434899,0.2384487 C 4.16546,9.6626416 4.2400778,9.8808827 4.14975,10.159746 L 4.094768,10.333531 C 3.9690958,10.527523 3.7570239,10.65281 3.5174612,10.65281 Z m 5.4392515,0 c -0.3259624,0 -0.6008704,-0.230366 -0.6754883,-0.541562 C 8.2615899,9.9738442 8.2537352,9.6343575 8.5129343,9.4039919 8.6346792,9.2948718 8.7956968,9.2382905 8.9567144,9.2382905 c 0.2238536,0 0.4319983,0.1131626 0.5458888,0.2990715 l 0.00785,0.00804 c 0,0 0.1649448,0.2424903 0.074618,0.630474 L 9.5536533,10.3052 C 9.4358357,10.515358 9.211982,10.65277 8.9567103,10.65277 Z M 10.574744,9.420158 c -0.01178,0.5577278 -0.365235,0.634516 -0.42807,0.642599 H 9.9346023 c 0.0039,-0.04042 0.0078,-0.084868 0.0078,-0.129328 0,-0.5577278 -0.4398536,-1.0144166 -0.9857424,-1.0144166 -0.5419616,0 -0.9857417,0.4566888 -0.9857417,1.0144166 0,0.044453 0.00393,0.084868 0.00785,0.129328 H 4.4914227 c 0.00393,-0.04042 0.00785,-0.084868 0.00785,-0.129328 0,-0.1980335 -0.054982,-0.3799009 -0.1492359,-0.5375202 -0.043199,-0.08083 -0.082472,-0.1293276 -0.090327,-0.1333691 l -0.00393,-0.00402 C 4.1772352,9.1736537 4.0908354,9.1049449 4.0005085,9.0564466 3.8591273,8.9715786 3.6902551,8.9230775 3.5135286,8.9230775 c -0.1453085,0 -0.2827625,0.03233 -0.4084348,0.092953 -0.082473,0.03233 -0.1335268,0.06466 -0.137454,0.06466 l -0.00393,0.00402 c -0.1688719,0.1131599 -0.2749079,0.2626962 -0.337744,0.416273 -0.058909,0.1333691 -0.094254,0.2788639 -0.094254,0.4324406 0,0.044453 0.00393,0.084868 0.00785,0.1293279 H 2.1468501 C 1.8719421,9.9132214 1.8797966,9.4484486 1.8797966,9.4444071 v -0.00402 -0.1333692 c 0.00785,-0.40415 1.1153411,-0.6789724 1.9007926,-0.7476783 h 0.00393 C 4.377535,8.4825466 4.7898971,8.1834802 4.8252423,8.1551896 5.1197866,7.9450315 5.5242942,7.7510396 5.5282214,7.7510396 5.8816746,7.5893797 6.4943268,7.5530061 6.9459613,7.5530061 c 0.3259624,0 0.5694524,0.020208 0.5694524,0.020208 1.0328686,0.08083 1.7829748,0.6708893 1.7908293,0.6789724 0.1688721,0.1333692 0.4359256,0.1535768 0.5812338,0.1535768 0.019639,0 0.035349,0 0.043198,0 l 0.4005812,0.020208 c 0.14138,0.00804 0.168871,0.096991 0.172799,0.1293276 v 0.01617 l 0.0078,0.020208 c 0.03927,0.1172031 0.05498,0.4728559 0.05891,0.6668479 z"
       id="path19"
       style="stroke-width:0.0398397" />
    <g
       id="g7785"
       style="stroke:#ababab;stroke-width:1.22392;stroke-opacity:1"
       transform="matrix(0.81929448,0,0,0.81480922,1.1748791,0.70506366)">
      <path
         style="fill:none;fill-rule:evenodd;stroke:#ffffff;stroke-width:1.94297;stroke-linecap:butt;stroke-linejoin:round;stroke-dasharray:none;stroke-opacity:1"
         id="path308"
         sodipodi:type="arc"
         sodipodi:cx="6.3497882"
         sodipodi:cy="6.0314722"
         sodipodi:rx="2.2942977"
         sodipodi:ry="2.3019865"
         sodipodi:start="2.5145825"
         sodipodi:end="0.47679667"
         sodipodi:open="true"
         sodipodi:arc-type="arc"
         d="M 4.4918995,7.3821081 A 2.2942977,2.3019865 0 0 1 4.7319013,4.3992927 2.2942977,2.3019865 0 0 1 7.7060177,4.1747455 2.2942977,2.3019865 0 0 1 8.3882019,7.0879355" />
      <path
         style="fill:none;fill-rule:evenodd;stroke:#ffffff;stroke-width:0.971484;stroke-linecap:square;stroke-linejoin:bevel;stroke-dasharray:none;stroke-opacity:1"
         d="m 5.8187559,3.2076399 0.504966,-1.3867653 0.468818,1.4048398 z"
         id="path1142"
         sodipodi:nodetypes="cccc"
         inkscape:tile-cx="6.2907978"
         inkscape:tile-cy="2.6859649"
         inkscape:tile-w="1.7231699"
         inkscape:tile-h="1.9374391"
         inkscape:tile-x0="5.430985"
         inkscape:tile-y0="1.8477524" />
      <use
         x="0"
         y="0"
         inkscape:tiled-clone-of="#path1142"
         xlink:href="#path1142"
         transform="rotate(50,6.2879238,6.1536925)"
         id="use6678"
         style="stroke:#ababab;stroke-width:1.22392;stroke-opacity:1" />
      <use
         x="0"
         y="0"
         inkscape:tiled-clone-of="#path1142"
         xlink:href="#path1142"
         transform="rotate(100,6.3190808,6.068926)"
         id="use6680"
         style="stroke:#ababab;stroke-width:1.22392;stroke-opacity:1" />
      <use
         x="0"
         y="0"
         inkscape:tiled-clone-of="#path1142"
         xlink:href="#path1142"
         transform="rotate(-110,6.3134899,5.9993127)"
         id="use6686"
         style="fill:#000000;stroke:#ababab;stroke-width:1.22392;stroke-opacity:1" />
      <use
         x="0"
         y="0"
         inkscape:tiled-clone-of="#path1142"
         xlink:href="#path1142"
         transform="rotate(-60,6.2472092,5.7896261)"
         id="use6688"
         style="fill:#000000;stroke:#000000;stroke-width:1.22392;stroke-opacity:1" />
    </g>
  </g>
</svg>
